<svg width="53" height="31" viewBox="0 0 53 31" fill="none" xmlns="http://www.w3.org/2000/svg">
<path d="M6.704 12.224C5.81867 12.224 4.99733 12.0853 4.24 11.808C3.49333 11.52 2.84267 11.1147 2.288 10.592C1.744 10.0693 1.31733 9.456 1.008 8.752C0.698667 8.03733 0.544 7.25333 0.544 6.4C0.544 5.54667 0.698667 4.768 1.008 4.064C1.31733 3.34933 1.744 2.73067 2.288 2.208C2.84267 1.68533 3.49333 1.28533 4.24 1.008C4.99733 0.719999 5.81867 0.575999 6.704 0.575999C7.73867 0.575999 8.66133 0.757333 9.472 1.12C10.2933 1.48267 10.976 2.00533 11.52 2.688L9.504 4.512C9.14133 4.08533 8.74133 3.76 8.304 3.536C7.87733 3.312 7.39733 3.2 6.864 3.2C6.40533 3.2 5.984 3.27467 5.6 3.424C5.216 3.57333 4.88533 3.792 4.608 4.08C4.34133 4.35733 4.128 4.69333 3.968 5.088C3.81867 5.48267 3.744 5.92 3.744 6.4C3.744 6.88 3.81867 7.31733 3.968 7.712C4.128 8.10667 4.34133 8.448 4.608 8.736C4.88533 9.01333 5.216 9.22667 5.6 9.376C5.984 9.52533 6.40533 9.6 6.864 9.6C7.39733 9.6 7.87733 9.488 8.304 9.264C8.74133 9.04 9.14133 8.71467 9.504 8.288L11.52 10.112C10.976 10.784 10.2933 11.3067 9.472 11.68C8.66133 12.0427 7.73867 12.224 6.704 12.224ZM19.721 12L24.665 0.799999H27.785L32.745 12H29.449L25.577 2.352H26.825L22.953 12H19.721ZM22.425 9.824L23.241 7.488H28.713L29.529 9.824H22.425ZM41.9631 12V0.799999H47.0831C48.1071 0.799999 48.9871 0.965333 49.7231 1.296C50.4698 1.62667 51.0458 2.10667 51.4511 2.736C51.8565 3.35467 52.0591 4.09067 52.0591 4.944C52.0591 5.78667 51.8565 6.51733 51.4511 7.136C51.0458 7.744 50.4698 8.21333 49.7231 8.544C48.9871 8.864 48.1071 9.024 47.0831 9.024H43.7231L45.1311 7.696V12H41.9631ZM48.8911 12L46.1071 7.92H49.4831L52.2831 12H48.8911ZM45.1311 8.032L43.7231 6.576H46.8911C47.5525 6.576 48.0431 6.432 48.3631 6.144C48.6938 5.856 48.8591 5.456 48.8591 4.944C48.8591 4.42133 48.6938 4.016 48.3631 3.728C48.0431 3.44 47.5525 3.296 46.8911 3.296H43.7231L45.1311 1.84V8.032ZM1.824 30V18.8H6.016C6.96533 18.8 7.78133 18.9547 8.464 19.264C9.14667 19.5627 9.66933 20 10.032 20.576C10.4053 21.1413 10.592 21.8293 10.592 22.64C10.592 23.4293 10.4053 24.112 10.032 24.688C9.66933 25.2533 9.14667 25.6907 8.464 26C7.78133 26.2987 6.96533 26.448 6.016 26.448H2.48L3.008 25.904V30H1.824ZM9.472 30L6.592 25.936H7.872L10.768 30H9.472ZM3.008 26L2.48 25.44H5.984C7.104 25.44 7.952 25.1947 8.528 24.704C9.11467 24.2133 9.408 23.5253 9.408 22.64C9.408 21.744 9.11467 21.0507 8.528 20.56C7.952 20.0693 7.104 19.824 5.984 19.824H2.48L3.008 19.264V26ZM16.7145 30.08C15.8398 30.08 15.0718 29.8987 14.4105 29.536C13.7492 29.1627 13.2318 28.656 12.8585 28.016C12.4852 27.3653 12.2985 26.624 12.2985 25.792C12.2985 24.96 12.4745 24.224 12.8265 23.584C13.1892 22.944 13.6798 22.4427 14.2985 22.08C14.9278 21.7067 15.6318 21.52 16.4105 21.52C17.1998 21.52 17.8985 21.7013 18.5065 22.064C19.1252 22.416 19.6105 22.9173 19.9625 23.568C20.3145 24.208 20.4905 24.9493 20.4905 25.792C20.4905 25.8453 20.4852 25.904 20.4745 25.968C20.4745 26.0213 20.4745 26.08 20.4745 26.144H13.1625V25.296H19.8665L19.4185 25.632C19.4185 25.024 19.2852 24.4853 19.0185 24.016C18.7625 23.536 18.4105 23.1627 17.9625 22.896C17.5145 22.6293 16.9972 22.496 16.4105 22.496C15.8345 22.496 15.3172 22.6293 14.8585 22.896C14.3998 23.1627 14.0425 23.536 13.7865 24.016C13.5305 24.496 13.4025 25.0453 13.4025 25.664V25.84C13.4025 26.48 13.5412 27.0453 13.8185 27.536C14.1065 28.016 14.5012 28.3947 15.0025 28.672C15.5145 28.9387 16.0958 29.072 16.7465 29.072C17.2585 29.072 17.7332 28.9813 18.1705 28.8C18.6185 28.6187 19.0025 28.3413 19.3225 27.968L19.9625 28.704C19.5892 29.152 19.1198 29.4933 18.5545 29.728C17.9998 29.9627 17.3865 30.08 16.7145 30.08ZM27.0908 21.52C27.7734 21.52 28.3708 21.6533 28.8828 21.92C29.4054 22.176 29.8108 22.5707 30.0988 23.104C30.3974 23.6373 30.5468 24.3093 30.5468 25.12V30H29.4108V25.232C29.4108 24.3467 29.1868 23.68 28.7388 23.232C28.3014 22.7733 27.6828 22.544 26.8828 22.544C26.2854 22.544 25.7628 22.6667 25.3148 22.912C24.8774 23.1467 24.5361 23.4933 24.2908 23.952C24.0561 24.4 23.9388 24.944 23.9388 25.584V30H22.8028V21.6H23.8908V23.904L23.7148 23.472C23.9814 22.864 24.4081 22.3893 24.9948 22.048C25.5814 21.696 26.2801 21.52 27.0908 21.52ZM36.2713 30.08C35.4819 30.08 34.8739 29.8667 34.4473 29.44C34.0206 29.0133 33.8073 28.4107 33.8073 27.632V19.744H34.9433V27.568C34.9433 28.0587 35.0659 28.4373 35.3113 28.704C35.5673 28.9707 35.9299 29.104 36.3993 29.104C36.9006 29.104 37.3166 28.96 37.6473 28.672L38.0473 29.488C37.8233 29.6907 37.5513 29.84 37.2313 29.936C36.9219 30.032 36.6019 30.08 36.2713 30.08ZM32.3033 22.544V21.6H37.5033V22.544H32.3033ZM45.3793 30V28.144L45.3313 27.84V24.736C45.3313 24.0213 45.1286 23.472 44.7233 23.088C44.3286 22.704 43.7366 22.512 42.9473 22.512C42.4033 22.512 41.8859 22.6027 41.3953 22.784C40.9046 22.9653 40.4886 23.2053 40.1473 23.504L39.6353 22.656C40.0619 22.2933 40.5739 22.016 41.1713 21.824C41.7686 21.6213 42.3979 21.52 43.0593 21.52C44.1473 21.52 44.9846 21.792 45.5713 22.336C46.1686 22.8693 46.4673 23.6853 46.4673 24.784V30H45.3793ZM42.4833 30.08C41.8539 30.08 41.3046 29.9787 40.8353 29.776C40.3766 29.5627 40.0246 29.2747 39.7793 28.912C39.5339 28.5387 39.4113 28.112 39.4113 27.632C39.4113 27.1947 39.5126 26.8 39.7153 26.448C39.9286 26.0853 40.2699 25.7973 40.7393 25.584C41.2193 25.36 41.8593 25.248 42.6593 25.248H45.5553V26.096H42.6913C41.8806 26.096 41.3153 26.24 40.9953 26.528C40.6859 26.816 40.5312 27.1733 40.5312 27.6C40.5312 28.08 40.7179 28.464 41.0913 28.752C41.4646 29.04 41.9873 29.184 42.6593 29.184C43.2993 29.184 43.8486 29.04 44.3073 28.752C44.7766 28.4533 45.1179 28.0267 45.3313 27.472L45.5873 28.256C45.3739 28.8107 45.0006 29.2533 44.4673 29.584C43.9446 29.9147 43.2833 30.08 42.4833 30.08ZM49.5528 30V18.128H50.6888V30H49.5528Z" fill="black"/>
</svg>
